<mxfile host="app.diagrams.net" modified="2020-03-14T12:08:48.372Z" agent="Mozilla/5.0 (Windows NT 10.0; Win64; x64) AppleWebKit/537.36 (KHTML, like Gecko) Chrome/74.0.3729.131 Safari/537.36" etag="NdQ_pzkhd9OH2nhEy5S7" version="12.8.4" type="github">
  <diagram id="nnTAs1MfJtq3i2q6aaK8" name="Page-1">
    <mxGraphModel dx="1038" dy="585" grid="1" gridSize="10" guides="1" tooltips="1" connect="1" arrows="1" fold="1" page="1" pageScale="1" pageWidth="5000" pageHeight="5000" math="0" shadow="0">
      <root>
        <mxCell id="0" />
        <mxCell id="1" parent="0" />
        <mxCell id="SRb2F7GsxGhOm74NIMbP-33" style="edgeStyle=orthogonalEdgeStyle;rounded=0;orthogonalLoop=1;jettySize=auto;html=1;strokeColor=#000000;shadow=0;comic=0;" parent="1" source="SRb2F7GsxGhOm74NIMbP-12" target="SRb2F7GsxGhOm74NIMbP-16" edge="1">
          <mxGeometry relative="1" as="geometry">
            <Array as="points">
              <mxPoint x="690" y="490" />
              <mxPoint x="690" y="490" />
            </Array>
          </mxGeometry>
        </mxCell>
        <mxCell id="pXl-28BVrEAQmyrSrW1X-3" style="edgeStyle=orthogonalEdgeStyle;rounded=0;orthogonalLoop=1;jettySize=auto;html=1;" parent="1" source="SRb2F7GsxGhOm74NIMbP-12" target="pXl-28BVrEAQmyrSrW1X-2" edge="1">
          <mxGeometry relative="1" as="geometry">
            <Array as="points">
              <mxPoint x="760" y="430" />
              <mxPoint x="760" y="430" />
            </Array>
          </mxGeometry>
        </mxCell>
        <mxCell id="SRb2F7GsxGhOm74NIMbP-12" value="&lt;i style=&quot;font-size: 10px&quot;&gt;Port: 9902&lt;/i&gt;&lt;br&gt;&lt;b&gt;&lt;font style=&quot;font-size: 12px&quot;&gt;GameLogic&lt;/font&gt;&lt;/b&gt;&lt;br&gt;&lt;i&gt;Java (SOAP)&lt;br&gt;&lt;br&gt;- Unirest&lt;br&gt;&lt;/i&gt;&lt;br&gt;Udbyder spillogik via SOAP" style="rounded=0;whiteSpace=wrap;html=1;fillColor=#b0e3e6;strokeColor=#0e8088;" parent="1" vertex="1">
          <mxGeometry x="500" y="369" width="120" height="150" as="geometry" />
        </mxCell>
        <mxCell id="xCrF7VmuerYYk6pL3oC7-4" style="edgeStyle=orthogonalEdgeStyle;rounded=0;orthogonalLoop=1;jettySize=auto;html=1;" edge="1" parent="1" source="SRb2F7GsxGhOm74NIMbP-14" target="SRb2F7GsxGhOm74NIMbP-12">
          <mxGeometry relative="1" as="geometry">
            <Array as="points">
              <mxPoint x="470" y="455" />
              <mxPoint x="470" y="455" />
            </Array>
          </mxGeometry>
        </mxCell>
        <mxCell id="SRb2F7GsxGhOm74NIMbP-14" value="&lt;b&gt;GameApp&lt;br&gt;&lt;/b&gt;&lt;i&gt;Python&lt;/i&gt;&lt;br&gt;&lt;br&gt;&lt;i&gt;- PyGame&lt;/i&gt;&lt;br&gt;&lt;i&gt;- SOAP&lt;/i&gt;&lt;br&gt;&lt;br&gt;Game view for client" style="rounded=0;whiteSpace=wrap;html=1;strokeColor=#ae4132;fillColor=#fad9d5;" parent="1" vertex="1">
          <mxGeometry x="290" y="390" width="120" height="150" as="geometry" />
        </mxCell>
        <mxCell id="xCrF7VmuerYYk6pL3oC7-13" style="edgeStyle=orthogonalEdgeStyle;rounded=0;orthogonalLoop=1;jettySize=auto;html=1;" edge="1" parent="1" source="SRb2F7GsxGhOm74NIMbP-15" target="SRb2F7GsxGhOm74NIMbP-16">
          <mxGeometry relative="1" as="geometry">
            <Array as="points">
              <mxPoint x="660" y="620" />
              <mxPoint x="660" y="620" />
            </Array>
          </mxGeometry>
        </mxCell>
        <mxCell id="SRb2F7GsxGhOm74NIMbP-15" value="&lt;b&gt;WebSite&lt;br&gt;&lt;/b&gt;&lt;i&gt;HTML / JS&lt;/i&gt;&lt;br&gt;&lt;br&gt;&lt;i&gt;- jquery&lt;br&gt;&lt;/i&gt;- ajax&lt;br&gt;&lt;br&gt;Website to see highsores, and download GameApp&amp;nbsp;" style="rounded=0;whiteSpace=wrap;html=1;strokeColor=#0e8088;fillColor=#b0e3e6;" parent="1" vertex="1">
          <mxGeometry x="500" y="580" width="120" height="170" as="geometry" />
        </mxCell>
        <mxCell id="SRb2F7GsxGhOm74NIMbP-32" style="edgeStyle=orthogonalEdgeStyle;rounded=0;orthogonalLoop=1;jettySize=auto;html=1;strokeColor=#000000;comic=0;" parent="1" source="SRb2F7GsxGhOm74NIMbP-16" target="SRb2F7GsxGhOm74NIMbP-18" edge="1">
          <mxGeometry relative="1" as="geometry">
            <Array as="points">
              <mxPoint x="940" y="585" />
            </Array>
          </mxGeometry>
        </mxCell>
        <mxCell id="xCrF7VmuerYYk6pL3oC7-10" style="edgeStyle=orthogonalEdgeStyle;rounded=0;orthogonalLoop=1;jettySize=auto;html=1;" edge="1" parent="1" source="SRb2F7GsxGhOm74NIMbP-16" target="SRb2F7GsxGhOm74NIMbP-17">
          <mxGeometry relative="1" as="geometry">
            <Array as="points">
              <mxPoint x="770" y="680" />
              <mxPoint x="770" y="680" />
            </Array>
          </mxGeometry>
        </mxCell>
        <mxCell id="SRb2F7GsxGhOm74NIMbP-16" value="&lt;i style=&quot;white-space: nowrap&quot;&gt;&lt;font style=&quot;font-size: 10px&quot;&gt;Port: 45786&lt;/font&gt;&lt;/i&gt;&lt;b&gt;&lt;br&gt;DatabaseAPI&lt;br&gt;&lt;/b&gt;&lt;i&gt;Java (REST)&lt;/i&gt;&lt;br&gt;&lt;br&gt;&lt;i&gt;- Javalin&lt;/i&gt;&lt;br&gt;&lt;br&gt;Public access to game data (users, highscores etc)&amp;nbsp;" style="rounded=0;whiteSpace=wrap;html=1;fillColor=#b0e3e6;strokeColor=#0e8088;" parent="1" vertex="1">
          <mxGeometry x="715" y="480" width="120" height="170" as="geometry" />
        </mxCell>
        <mxCell id="SRb2F7GsxGhOm74NIMbP-17" value="&lt;b&gt;Database&lt;br&gt;&lt;/b&gt;&lt;i&gt;MongoDB&lt;/i&gt;&lt;br&gt;&lt;div&gt;&lt;br&gt;&lt;/div&gt;Database of users etc." style="rounded=0;whiteSpace=wrap;html=1;fillColor=#b0e3e6;strokeColor=#0e8088;" parent="1" vertex="1">
          <mxGeometry x="710" y="710" width="120" height="100" as="geometry" />
        </mxCell>
        <mxCell id="SRb2F7GsxGhOm74NIMbP-18" value="&lt;b&gt;BrugerAuth&lt;br&gt;&lt;/b&gt;&lt;i&gt;Java (RMI)&lt;/i&gt;&lt;br&gt;&lt;br&gt;Offentlig bruger API for kursusbrugere." style="rounded=0;whiteSpace=wrap;html=1;fillColor=#fff2cc;strokeColor=#d6b656;" parent="1" vertex="1">
          <mxGeometry x="880" y="550" width="120" height="100" as="geometry" />
        </mxCell>
        <mxCell id="SRb2F7GsxGhOm74NIMbP-36" value="&lt;font style=&quot;font-size: 20px&quot;&gt;&lt;b&gt;&lt;i&gt;maltebp.dk&lt;/i&gt;&lt;/b&gt;&lt;/font&gt;" style="text;html=1;strokeColor=none;fillColor=none;align=center;verticalAlign=middle;whiteSpace=wrap;rounded=0;dashed=1;" parent="1" vertex="1">
          <mxGeometry x="585" y="60" width="150" height="20" as="geometry" />
        </mxCell>
        <mxCell id="mAK5djfJXluSxHsJpgYY-1" value="&lt;div&gt;REST (HTTP)&lt;/div&gt;" style="text;html=1;align=center;verticalAlign=middle;resizable=0;points=[];autosize=1;rotation=0;" parent="1" vertex="1">
          <mxGeometry x="620" y="470" width="90" height="20" as="geometry" />
        </mxCell>
        <mxCell id="mAK5djfJXluSxHsJpgYY-3" value="&lt;div&gt;REST (HTTP)&lt;/div&gt;" style="text;html=1;align=center;verticalAlign=middle;resizable=0;points=[];autosize=1;" parent="1" vertex="1">
          <mxGeometry x="625" y="590" width="90" height="20" as="geometry" />
        </mxCell>
        <mxCell id="mAK5djfJXluSxHsJpgYY-5" value="SOAP (HTTP)" style="text;html=1;align=center;verticalAlign=middle;resizable=0;points=[];autosize=1;" parent="1" vertex="1">
          <mxGeometry x="410" y="430" width="90" height="20" as="geometry" />
        </mxCell>
        <mxCell id="mAK5djfJXluSxHsJpgYY-6" value="com.MongoDB" style="text;html=1;align=center;verticalAlign=middle;resizable=0;points=[];autosize=1;" parent="1" vertex="1">
          <mxGeometry x="680" y="670" width="90" height="20" as="geometry" />
        </mxCell>
        <mxCell id="pXl-28BVrEAQmyrSrW1X-2" value="&lt;b&gt;Random Word Api&lt;br&gt;&lt;/b&gt;&lt;i&gt;&lt;br&gt;&lt;/i&gt;REST (Unknown)&lt;br&gt;&lt;br&gt;Public API to get random Wnglish word.&lt;br&gt;&lt;a href=&quot;https://random-word-api.herokuapp.com/home&quot;&gt;&lt;font style=&quot;font-size: 8px&quot;&gt;https://random-word-api.herokuapp.com/home&lt;/font&gt;&lt;/a&gt;" style="rounded=0;whiteSpace=wrap;html=1;fillColor=#fff2cc;strokeColor=#d6b656;" parent="1" vertex="1">
          <mxGeometry x="880" y="379" width="120" height="140" as="geometry" />
        </mxCell>
        <mxCell id="pXl-28BVrEAQmyrSrW1X-4" value="&lt;div&gt;REST (HTTP)&lt;/div&gt;" style="text;html=1;align=center;verticalAlign=middle;resizable=0;points=[];autosize=1;" parent="1" vertex="1">
          <mxGeometry x="620" y="410" width="90" height="20" as="geometry" />
        </mxCell>
        <mxCell id="xCrF7VmuerYYk6pL3oC7-15" value="" style="endArrow=none;html=1;dashed=1;strokeWidth=2;strokeColor=#DEDEDE;" edge="1" parent="1">
          <mxGeometry width="50" height="50" relative="1" as="geometry">
            <mxPoint x="450" y="820" as="sourcePoint" />
            <mxPoint x="450" y="340" as="targetPoint" />
          </mxGeometry>
        </mxCell>
        <mxCell id="xCrF7VmuerYYk6pL3oC7-16" value="" style="endArrow=none;html=1;dashed=1;strokeWidth=2;strokeColor=#DEDEDE;" edge="1" parent="1">
          <mxGeometry width="50" height="50" relative="1" as="geometry">
            <mxPoint x="850" y="820" as="sourcePoint" />
            <mxPoint x="850" y="350" as="targetPoint" />
          </mxGeometry>
        </mxCell>
        <mxCell id="xCrF7VmuerYYk6pL3oC7-17" value="&lt;h2&gt;&lt;span style=&quot;font-weight: normal&quot;&gt;maltebp.dk&lt;/span&gt;&lt;/h2&gt;" style="text;html=1;strokeColor=none;fillColor=none;align=center;verticalAlign=middle;whiteSpace=wrap;rounded=0;" vertex="1" parent="1">
          <mxGeometry x="605" y="340" width="110" height="20" as="geometry" />
        </mxCell>
        <mxCell id="xCrF7VmuerYYk6pL3oC7-19" value="&lt;h2&gt;&lt;span style=&quot;font-weight: 400&quot;&gt;client&lt;/span&gt;&lt;/h2&gt;" style="text;html=1;strokeColor=none;fillColor=none;align=center;verticalAlign=middle;whiteSpace=wrap;rounded=0;" vertex="1" parent="1">
          <mxGeometry x="300" y="340" width="110" height="20" as="geometry" />
        </mxCell>
        <mxCell id="xCrF7VmuerYYk6pL3oC7-20" value="&lt;h2&gt;&lt;span style=&quot;font-weight: 400&quot;&gt;external services&lt;/span&gt;&lt;/h2&gt;" style="text;html=1;strokeColor=none;fillColor=none;align=center;verticalAlign=middle;whiteSpace=wrap;rounded=0;" vertex="1" parent="1">
          <mxGeometry x="860" y="340" width="155" height="20" as="geometry" />
        </mxCell>
        <mxCell id="mAK5djfJXluSxHsJpgYY-4" value="&lt;div&gt;RMI&lt;/div&gt;" style="text;html=1;align=center;verticalAlign=middle;resizable=0;points=[];autosize=1;" parent="1" vertex="1">
          <mxGeometry x="835" y="540" width="40" height="20" as="geometry" />
        </mxCell>
      </root>
    </mxGraphModel>
  </diagram>
</mxfile>
